<?xml version="1.0" encoding="utf-8"?>
<!-- Generator: Adobe Illustrator 19.1.0, SVG Export Plug-In . SVG Version: 6.00 Build 0)  -->
<svg version="1.1" id="Layer_1" xmlns="http://www.w3.org/2000/svg" xmlns:xlink="http://www.w3.org/1999/xlink" x="0px" y="0px"
	 viewBox="0 0 61.2 60" style="enable-background:new 0 0 61.2 60;" xml:space="preserve">
<style type="text/css">
	.st0{fill:#FFFFFF;}
</style>
<g>
	<path class="st0" d="M15.9,16.2l3,3.8l7.6-18.9L6.3,3.9l3.2,4.1C4,13.3,0.6,20.5,0.1,28.1c-1,15,8.8,28.4,23.4,31.9l2.4-9.9
		c-9.7-2.3-16.3-11.3-15.6-21.3C10.6,24.1,12.6,19.6,15.9,16.2z"/>
	<path class="st0" d="M61.1,32.3C62.2,16.6,50.9,2.4,35.4,0l-1.6,10.1C44.1,11.7,51.7,21.2,51,31.6c-0.3,4.7-2.3,9.2-5.6,12.6
		l-3-3.8l-7.6,18.9L55,56.4l-3.2-4.1C57.2,47.1,60.6,40,61.1,32.3z"/>
</g>
</svg>
