<?xml version="1.0" encoding="utf-8"?>
<!-- Generator: Adobe Illustrator 19.1.0, SVG Export Plug-In . SVG Version: 6.00 Build 0)  -->
<svg version="1.1" id="Layer_1" xmlns="http://www.w3.org/2000/svg" xmlns:xlink="http://www.w3.org/1999/xlink" x="0px" y="0px"
	 viewBox="0 0 64 64" style="enable-background:new 0 0 64 64;" xml:space="preserve">
<style type="text/css">
	.st0{fill:#FFFFFF;}
</style>
<path class="st0" d="M21,16.6c2.9,0,5.2,2.3,5.2,5.2c0,2.9-2.3,5.2-5.2,5.2c-2.9,0-5.2-2.3-5.2-5.2C15.8,19,18.2,16.6,21,16.6z
	 M50.4,38.1c0,7.6-8.2,13.7-18.4,13.7s-18.4-6.1-18.4-13.7L50.4,38.1z M42.9,16.6c2.9,0,5.2,2.3,5.2,5.2c0,2.9-2.3,5.2-5.2,5.2
	c-2.9,0-5.2-2.3-5.2-5.2C37.7,18.9,40,16.6,42.9,16.6z M32,64c17.7,0,32-14.4,32-32C64,14.3,49.6,0,32,0C14.3,0,0,14.4,0,32
	C0,49.7,14.4,64,32,64z"/>
</svg>
