<?xml version="1.0" encoding="utf-8"?>
<!-- Generator: Adobe Illustrator 19.1.0, SVG Export Plug-In . SVG Version: 6.00 Build 0)  -->
<svg version="1.1" id="Layer_1" xmlns="http://www.w3.org/2000/svg" xmlns:xlink="http://www.w3.org/1999/xlink" x="0px" y="0px"
	 viewBox="0 0 57.5 52.9" style="enable-background:new 0 0 57.5 52.9;" xml:space="preserve">
<style type="text/css">
	.st0{fill:#FFFFFF;}
</style>
<g>
	<path class="st0" d="M9.2,26.6l-4.3-5.8c-0.9-1.2-2.6-1.4-3.8-0.5c-1.2,0.9-1.4,2.6-0.5,3.8l8.6,11.5V26.6z"/>
	<path class="st0" d="M32.8,10.2c-0.3-0.3-0.6-0.5-1-0.8v15.3l10.6,8.5c0,0,8.5,6.9,15.1,4.6C44.2,19.4,35.6,12.5,32.8,10.2z"/>
	<path class="st0" d="M24.1,41.5h-2.5v2.4h-2.2v-2.4H17v-2.3h2.4v-2.4h2.2v2.4h2.5L24.1,41.5L24.1,41.5z M20.5,6.6c1.1,0,2,0.9,2,2
		c0,1.1-0.9,2-2,2c-1.1,0-2-0.9-2-2C18.6,7.5,19.4,6.6,20.5,6.6z M29.1,8.6c0-4.8-3.9-8.6-8.6-8.6c-4.8,0-8.6,3.9-8.6,8.6v35.6
		c0,4.8,3.9,8.6,8.6,8.6c4.8,0,8.6-3.9,8.6-8.6V8.6z"/>
</g>
</svg>
